<svg width="272" height="120" viewBox="0 0 272 120" fill="none" xmlns="http://www.w3.org/2000/svg">
<g filter="url(#filter0_i_347_715)">
<path d="M0 59.61C0 26.6883 26.6883 0 59.61 0H212.39C245.312 0 272 26.6883 272 59.61C272 92.5317 245.312 119.22 212.39 119.22H59.61C26.6883 119.22 0 92.5317 0 59.61Z" fill="#FF7093"/>
</g>
<path d="M0.05 59.61C0.05 26.7159 26.7159 0.05 59.61 0.05H212.39C245.284 0.05 271.95 26.7159 271.95 59.61C271.95 92.5041 245.284 119.17 212.39 119.17H59.61C26.7159 119.17 0.05 92.5041 0.05 59.61Z" stroke="#FFE0E0" stroke-width="0.1"/>
<defs>
<filter id="filter0_i_347_715" x="0" y="0" width="272" height="123.22" filterUnits="userSpaceOnUse" color-interpolation-filters="sRGB">
<feFlood flood-opacity="0" result="BackgroundImageFix"/>
<feBlend mode="normal" in="SourceGraphic" in2="BackgroundImageFix" result="shape"/>
<feColorMatrix in="SourceAlpha" type="matrix" values="0 0 0 0 0 0 0 0 0 0 0 0 0 0 0 0 0 0 127 0" result="hardAlpha"/>
<feOffset dy="4"/>
<feGaussianBlur stdDeviation="2"/>
<feComposite in2="hardAlpha" operator="arithmetic" k2="-1" k3="1"/>
<feColorMatrix type="matrix" values="0 0 0 0 0 0 0 0 0 0 0 0 0 0 0 0 0 0 0.25 0"/>
<feBlend mode="normal" in2="shape" result="effect1_innerShadow_347_715"/>
</filter>
</defs>
</svg>
