<svg width="42" height="45" viewBox="0 0 42 45" fill="none" xmlns="http://www.w3.org/2000/svg">
<g id="Linear / Messages, Conversation / Letter">
<path id="Vector" d="M4.23438 22.6405C4.23438 15.8297 4.23438 12.4243 6.23886 10.3085C8.24336 8.19263 11.4695 8.19263 17.9219 8.19263H24.7656C31.2179 8.19263 34.4442 8.19263 36.4486 10.3085C38.4531 12.4243 38.4531 15.8297 38.4531 22.6405C38.4531 29.4513 38.4531 32.8568 36.4486 34.9726C34.4442 37.0885 31.2179 37.0885 24.7656 37.0885H17.9219C11.4695 37.0885 8.24336 37.0885 6.23886 34.9726C4.23438 32.8568 4.23438 29.4513 4.23438 22.6405Z" stroke="black" stroke-width="1.5"/>
<path id="Vector_2" d="M11.0781 15.4167L14.7719 18.6659C17.9142 21.43 19.4855 22.8121 21.3438 22.8121C23.202 22.8121 24.7733 21.43 27.9156 18.6659L31.6094 15.4167" stroke="black" stroke-width="1.5" stroke-linecap="round"/>
</g>
</svg>
